<?xml version="1.0" standalone="no"?><!DOCTYPE svg PUBLIC "-//W3C//DTD SVG 1.1//EN" "http://www.w3.org/Graphics/SVG/1.1/DTD/svg11.dtd"><svg t="1775299497434" class="icon" viewBox="0 0 1024 1024" version="1.1" xmlns="http://www.w3.org/2000/svg" p-id="11549" xmlns:xlink="http://www.w3.org/1999/xlink" width="200" height="200"><path d="M761.856 215.04H262.656a81.5104 81.5104 0 0 0-58.88 24.6784 83.6608 83.6608 0 0 0-24.576 59.5456v5.12h666.112v-5.12a83.6608 83.6608 0 0 0-24.576-59.5456 81.5104 81.5104 0 0 0-58.88-24.6784m-156.16-45.312l12.288 77.7216H406.016l12.288-77.7216h187.392m17.92-67.2256H401.408a50.176 50.176 0 0 0-47.616 41.8304l-15.872 117.76a35.84 35.84 0 0 0 35.84 41.728h277.504a35.84 35.84 0 0 0 27.648-12.288 38.0416 38.0416 0 0 0 8.192-29.4912l-16.384-117.76a49.5616 49.5616 0 0 0-47.104-41.7792m152.576 259.1232H248.832a50.0736 50.0736 0 0 0-37.888 16.4352 50.7904 50.7904 0 0 0-12.8 39.5264l45.568 447.7952a61.952 61.952 0 0 0 60.416 55.9616h416.256a62.8736 62.8736 0 0 0 60.928-55.9616l45.056-447.7952a50.7904 50.7904 0 0 0-12.8-39.5264 48.2304 48.2304 0 0 0-37.376-16.4352m-385.536 480.256H307.2l-28.16-395.264h111.616v395.264z m166.4 0H467.968v-395.264h89.088v395.264z m160.256 0h-82.944v-395.264h111.104z m-10.752-32.9216" fill="#808080" p-id="11550"></path></svg>