<?xml version="1.0" standalone="no"?><!DOCTYPE svg PUBLIC "-//W3C//DTD SVG 1.1//EN" "http://www.w3.org/Graphics/SVG/1.1/DTD/svg11.dtd"><svg t="1773916699528" class="icon" viewBox="0 0 1024 1024" version="1.1" xmlns="http://www.w3.org/2000/svg" p-id="7812" xmlns:xlink="http://www.w3.org/1999/xlink" width="200" height="200"><path d="M384 298.666667a42.666667 42.666667 0 0 1 42.666667 42.666666v170.666667a42.666667 42.666667 0 1 1-85.333334 0V341.333333a42.666667 42.666667 0 0 1 42.666667-42.666666zM640 298.666667a42.666667 42.666667 0 0 1 42.666667 42.666666v170.666667a42.666667 42.666667 0 1 1-85.333334 0V341.333333a42.666667 42.666667 0 0 1 42.666667-42.666666z" fill="#8792A3" p-id="7813"></path><path d="M42.666667 256a128 128 0 0 1 128-128h682.666666a128 128 0 0 1 128 128v341.333333a128 128 0 0 1-128 128H170.666667a128 128 0 0 1-128-128V256z m128-42.666667a42.666667 42.666667 0 0 0-42.666667 42.666667v341.333333a42.666667 42.666667 0 0 0 42.666667 42.666667h682.666666a42.666667 42.666667 0 0 0 42.666667-42.666667V256a42.666667 42.666667 0 0 0-42.666667-42.666667H170.666667zM170.666667 869.632c0-9.984 5.632-19.114667 14.592-23.594667l52.736-26.368A85.333333 85.333333 0 0 1 276.138667 810.666667h471.722666a85.333333 85.333333 0 0 1 38.144 9.002666l52.736 26.368A26.368 26.368 0 0 1 826.965333 896H197.034667A26.368 26.368 0 0 1 170.666667 869.632zM682.666667 725.333333v85.333334h-85.333334v-85.333334h85.333334zM426.666667 725.333333v85.333334H341.333333v-85.333334h85.333334z" fill="#4E5969" p-id="7814"></path></svg>